<svg width="23" height="23" viewBox="0 0 23 23" fill="none" xmlns="http://www.w3.org/2000/svg">
<circle cx="11.5" cy="11.5" r="10.85" stroke="black" stroke-width="1.3"/>
<path fill-rule="evenodd" clip-rule="evenodd" d="M10.6044 5C10.0554 5 9.59738 5.40542 9.54944 5.93387C9.4492 7.03875 9.42384 8.14855 9.47342 9.25618C9.41357 9.26005 9.35373 9.2641 9.2939 9.26831L8.23683 9.34276C7.56118 9.39035 7.18349 10.1183 7.54825 10.6699C8.32618 11.8462 9.32857 12.8689 10.502 13.6833L10.9255 13.9773C11.2688 14.2156 11.7313 14.2156 12.0746 13.9773L12.4981 13.6833C13.6715 12.8689 14.6739 11.8462 15.4519 10.6699C15.8166 10.1183 15.4389 9.39035 14.7633 9.34276L13.7062 9.26831C13.6464 9.2641 13.5865 9.26005 13.5267 9.25618C13.5763 8.14855 13.5509 7.03874 13.4507 5.93386C13.4027 5.40541 12.9448 5 12.3957 5H10.6044ZM10.5643 9.70724C10.4836 8.48172 10.4987 7.252 10.6094 6.02857H12.3907C12.5014 7.252 12.5165 8.48172 12.4358 9.70724C12.4267 9.84464 12.4751 9.9798 12.57 10.0825C12.6649 10.1852 12.7985 10.2468 12.9408 10.2536C13.1702 10.2645 13.3996 10.278 13.6288 10.2942L14.3965 10.3482C13.7156 11.3174 12.8629 12.1637 11.8771 12.8479L11.5001 13.1096L11.123 12.8479C10.1372 12.1637 9.28455 11.3174 8.60359 10.3482L9.37129 10.2942C9.60051 10.278 9.82988 10.2645 10.0593 10.2536C10.2017 10.2468 10.3352 10.1852 10.4301 10.0825C10.525 9.9798 10.5734 9.84464 10.5643 9.70724Z" fill="black"/>
<path d="M7.06452 14.4286C7.06452 14.1445 6.82622 13.9143 6.53226 13.9143C6.2383 13.9143 6 14.1445 6 14.4286V15.8C6 16.4627 6.55603 17 7.24194 17H15.7581C16.444 17 17 16.4627 17 15.8V14.4286C17 14.1445 16.7617 13.9143 16.4677 13.9143C16.1738 13.9143 15.9355 14.1445 15.9355 14.4286V15.8C15.9355 15.8947 15.8561 15.9714 15.7581 15.9714H7.24194C7.14395 15.9714 7.06452 15.8947 7.06452 15.8V14.4286Z" fill="black"/>
</svg>
