<svg width="23" height="24" viewBox="0 0 23 24" fill="none" xmlns="http://www.w3.org/2000/svg">
<circle cx="11.5" cy="11.5835" r="10.8928" stroke="black" stroke-width="1.21441"/>
<path d="M12.3863 6.1C12.3863 6.338 12.3013 6.542 12.1313 6.712C11.9727 6.882 11.7687 6.967 11.5193 6.967C11.2813 6.967 11.0773 6.882 10.9073 6.712C10.7373 6.542 10.6523 6.338 10.6523 6.1C10.6523 5.85067 10.7373 5.641 10.9073 5.471C11.0773 5.301 11.2813 5.216 11.5193 5.216C11.7687 5.216 11.9727 5.301 12.1313 5.471C12.3013 5.641 12.3863 5.85067 12.3863 6.1ZM10.9073 18V8.718H12.0973V18H10.9073Z" fill="black"/>
</svg>
