<svg width="110" height="14" viewBox="0 0 110 14" fill="none" xmlns="http://www.w3.org/2000/svg">
<path d="M35.1298 12.0028C33.9131 10.6844 33.3048 9.01352 33.3048 6.99021C33.3048 4.9669 33.9131 3.29604 35.1298 1.97762C36.3583 0.659207 37.8585 0 39.6303 0C40.9769 0 42.17 0.378555 43.2095 1.13566C44.2608 1.89277 45.0109 2.95664 45.4598 4.32727H42.4653C41.9101 3.12634 40.9651 2.52587 39.6303 2.52587C38.5081 2.52587 37.5927 2.93706 36.8839 3.75944C36.187 4.56876 35.8385 5.65221 35.8385 7.00979C35.8385 8.35431 36.187 9.43776 36.8839 10.2601C37.5927 11.0695 38.5081 11.4741 39.6303 11.4741C40.9533 11.4741 41.8983 10.8737 42.4653 9.67273H45.4598C45.0109 11.0434 44.2608 12.1072 43.2095 12.8643C42.17 13.6084 40.9769 13.9804 39.6303 13.9804C37.8467 13.9804 36.3465 13.3212 35.1298 12.0028Z" fill="black"/>
<path d="M54.5415 0.195804H57.0398V13.8629H54.5415V8.00839H49.2259V13.8629H46.7276V0.195804H49.2259V5.89371H54.5415V0.195804Z" fill="black"/>
<path d="M61.3175 8.41958V13.8629H58.8192V0.195804H63.3729C64.8022 0.195804 65.9007 0.593939 66.6685 1.39021C67.4481 2.17343 67.838 3.14592 67.838 4.30769C67.838 5.16923 67.6017 5.97203 67.1292 6.71608C66.6567 7.46014 65.9125 7.96923 64.8967 8.24336L68.0506 13.8629H65.0916L62.1326 8.41958H61.3175ZM61.3175 2.31049V6.3049H63.3729C63.9989 6.3049 64.4773 6.12867 64.8081 5.77622C65.1388 5.41072 65.3042 4.92121 65.3042 4.30769C65.3042 3.69417 65.1388 3.21119 64.8081 2.85874C64.4773 2.49324 63.9989 2.31049 63.3729 2.31049H61.3175Z" fill="black"/>
<path d="M77.8032 10.2601C78.5001 9.43776 78.8486 8.34779 78.8486 6.99021C78.8486 5.63263 78.5001 4.54918 77.8032 3.73986C77.1062 2.93054 76.1967 2.52587 75.0745 2.52587C73.9523 2.52587 73.0368 2.93706 72.3281 3.75944C71.6312 4.56876 71.2827 5.65221 71.2827 7.00979C71.2827 8.35431 71.6312 9.43776 72.3281 10.2601C73.0368 11.0695 73.9523 11.4741 75.0745 11.4741C76.1967 11.4741 77.1062 11.0695 77.8032 10.2601ZM75.0745 14C73.2908 14 71.7906 13.3408 70.574 12.0224C69.3573 10.704 68.7489 9.0331 68.7489 7.00979C68.7489 4.97343 69.3573 3.29604 70.574 1.97762C71.8025 0.659207 73.3026 0 75.0745 0C76.8582 0 78.3583 0.659207 79.575 1.97762C80.7917 3.29604 81.4 4.97343 81.4 7.00979C81.4 9.0331 80.7917 10.704 79.575 12.0224C78.3583 13.3408 76.8582 14 75.0745 14Z" fill="black"/>
<path d="M90.5806 0.156643H93.079V13.8629H90.5806L84.9816 4.38601V13.8629H82.4832V0.156643H84.9816L90.5806 9.63357V0.156643Z" fill="black"/>
<path d="M94.8517 13.8629V0.195804H97.35V13.8629H94.8517Z" fill="black"/>
<path d="M101.62 13.8629H99.1221V0.195804H101.62V6.3049L106.086 0.195804H109.346L103.977 7.04895L109.346 13.8629H106.103L101.62 7.79301V13.8629Z" fill="black"/>
<path d="M0 0V14H4.28167V9.56611L5.29906 8.41767L8.43764 14H24.7512V9.64603H26.9038C30.6437 9.64603 32.305 7.73805 32.305 4.72416C32.305 1.84638 30.4983 0 26.7585 0H8.0409L4.28167 4.53065V0H0ZM13.9881 0.471154L15.0094 2.65445C15.186 2.62879 15.3683 2.61659 15.5515 2.61659C15.7589 2.61659 15.9615 2.63011 16.1604 2.66286L17.1856 0.471154L17.052 2.92788C17.407 3.08291 17.735 3.29394 18.0301 3.54627L19.9589 2.18329L18.6861 4.25301C18.9172 4.56898 19.1068 4.91776 19.2479 5.29627L21.5576 5.15325L19.4875 6.26382C19.5146 6.46474 19.5307 6.66904 19.5307 6.87801C19.5307 7.07811 19.5163 7.27418 19.4914 7.46695L21.5576 8.57752L19.2557 8.4345C19.1155 8.81667 18.9257 9.17136 18.694 9.49039L19.9589 11.5475L18.0459 10.1971C17.7468 10.4554 17.4132 10.6704 17.052 10.8281L17.1856 13.2596L16.1721 11.0889C15.9694 11.123 15.7632 11.1394 15.5515 11.1394C15.3643 11.1394 15.1779 11.1283 14.9976 11.1016L13.9881 13.2596L14.1177 10.8576C13.7438 10.7032 13.3981 10.4879 13.0886 10.2266L11.2148 11.5475L12.4483 9.54507C12.1992 9.2134 11.9954 8.84108 11.8473 8.4387L9.61608 8.57752L11.6116 7.50481C11.5833 7.29992 11.5684 7.09129 11.5684 6.87801C11.5684 6.65586 11.5849 6.43894 11.6155 6.22596L9.61608 5.15325L11.8551 5.29207C12.0041 4.89381 12.2081 4.52666 12.4561 4.19832L11.2148 2.18329L13.1043 3.51683C13.4109 3.26068 13.7526 3.05039 14.1217 2.89844L13.9881 0.471154ZM24.7512 3.26863H25.965C26.8683 3.26863 28.2394 3.44241 28.2394 4.74519C28.2394 5.95075 27.5165 6.3774 26.5228 6.3774H24.7512V3.26863Z" fill="black"/>
</svg>
