<svg width="33" height="10" viewBox="0 0 33 10" fill="none" xmlns="http://www.w3.org/2000/svg">
<mask id="path-1-inside-1_1006_8535" fill="white">
<path fill-rule="evenodd" clip-rule="evenodd" d="M16.2595 0C16.2595 0 16.2595 0 16.2595 0C7.27963 0 0 2.23857 0 4.99999C0 7.76141 7.27963 9.99998 16.2595 9.99998C16.2595 9.99998 16.2595 9.99998 16.2595 9.99998V0Z"/>
</mask>
<path d="M16.2595 0H17.2595V-1H16.2595V0ZM16.2595 9.99998V11H17.2595V9.99998H16.2595ZM16.2595 1C16.2595 1 16.2595 1 16.2595 1C16.2595 1 16.2595 1 16.2595 1V-1C16.2595 -1 16.2595 -1 16.2595 -1C16.2595 -1 16.2595 -1 16.2595 -1V1ZM1 4.99999C1 4.78315 1.14569 4.38614 1.8658 3.86259C2.56393 3.35503 3.63846 2.85627 5.05623 2.42029C7.87953 1.55209 11.8407 1 16.2595 1V-1C11.6984 -1 7.52986 -0.432807 4.46837 0.508635C2.94375 0.977474 1.63713 1.55613 0.689705 2.24494C-0.235734 2.91777 -1 3.83612 -1 4.99999H1ZM16.2595 8.99998C11.8407 8.99998 7.87953 8.44789 5.05623 7.57969C3.63846 7.14371 2.56393 6.64495 1.8658 6.13738C1.14569 5.61383 1 5.21683 1 4.99999H-1C-1 6.16386 -0.235734 7.08221 0.689705 7.75504C1.63713 8.44385 2.94375 9.0225 4.46837 9.49134C7.52986 10.4328 11.6984 11 16.2595 11V8.99998ZM16.2595 8.99998C16.2595 8.99998 16.2595 8.99998 16.2595 8.99998C16.2595 8.99998 16.2595 8.99998 16.2595 8.99998C16.2595 8.99998 16.2595 8.99998 16.2595 8.99998C16.2595 8.99998 16.2595 8.99998 16.2595 8.99998C16.2595 8.99998 16.2595 8.99998 16.2595 8.99998C16.2595 8.99998 16.2595 8.99998 16.2595 8.99998C16.2595 8.99998 16.2595 8.99998 16.2595 8.99998C16.2595 8.99998 16.2595 8.99998 16.2595 8.99998C16.2595 8.99998 16.2595 8.99998 16.2595 8.99998C16.2595 8.99998 16.2595 8.99998 16.2595 8.99998C16.2595 8.99998 16.2595 8.99998 16.2595 8.99998C16.2595 8.99998 16.2595 8.99998 16.2595 8.99998C16.2595 8.99998 16.2595 8.99998 16.2595 8.99998C16.2595 8.99998 16.2595 8.99998 16.2595 8.99998C16.2595 8.99998 16.2595 8.99998 16.2595 8.99998C16.2595 8.99998 16.2595 8.99998 16.2595 8.99998C16.2595 8.99998 16.2595 8.99998 16.2595 8.99998C16.2595 8.99998 16.2595 8.99998 16.2595 8.99998C16.2595 8.99998 16.2595 8.99998 16.2595 8.99998C16.2595 8.99998 16.2595 8.99998 16.2595 8.99998C16.2595 8.99998 16.2595 8.99998 16.2595 8.99998C16.2595 8.99998 16.2595 8.99998 16.2595 8.99998C16.2595 8.99998 16.2595 8.99998 16.2595 8.99998C16.2595 8.99998 16.2595 8.99998 16.2595 8.99998C16.2595 8.99998 16.2595 8.99998 16.2595 8.99998C16.2595 8.99998 16.2595 8.99998 16.2595 8.99998C16.2595 8.99998 16.2595 8.99998 16.2595 8.99998C16.2595 8.99998 16.2595 8.99998 16.2595 8.99998C16.2595 8.99998 16.2595 8.99998 16.2595 8.99998C16.2595 8.99998 16.2595 8.99998 16.2595 8.99998C16.2595 8.99998 16.2595 8.99998 16.2595 8.99998C16.2595 8.99998 16.2595 8.99998 16.2595 8.99998C16.2595 8.99998 16.2595 8.99998 16.2595 8.99998C16.2595 8.99998 16.2595 8.99998 16.2595 8.99998C16.2595 8.99998 16.2595 8.99998 16.2595 8.99998C16.2595 8.99998 16.2595 8.99998 16.2595 8.99998C16.2595 8.99998 16.2595 8.99998 16.2595 8.99998C16.2595 8.99998 16.2595 8.99998 16.2595 8.99998C16.2595 8.99998 16.2595 8.99998 16.2595 8.99998C16.2595 8.99998 16.2595 8.99998 16.2595 8.99998C16.2595 8.99998 16.2595 8.99998 16.2595 8.99998C16.2595 8.99998 16.2595 8.99998 16.2595 8.99998C16.2595 8.99998 16.2595 8.99998 16.2595 8.99998C16.2595 8.99998 16.2595 8.99998 16.2595 8.99998C16.2595 8.99998 16.2595 8.99998 16.2595 8.99998C16.2595 8.99998 16.2595 8.99998 16.2595 8.99998C16.2595 8.99998 16.2595 8.99998 16.2595 8.99998C16.2595 8.99998 16.2595 8.99998 16.2595 8.99998C16.2595 8.99998 16.2595 8.99998 16.2595 8.99998C16.2595 8.99998 16.2595 8.99998 16.2595 8.99998C16.2595 8.99998 16.2595 8.99998 16.2595 8.99998C16.2595 8.99998 16.2595 8.99998 16.2595 8.99998C16.2595 8.99998 16.2595 8.99998 16.2595 8.99998C16.2595 8.99998 16.2595 8.99998 16.2595 8.99998C16.2595 8.99998 16.2595 8.99998 16.2595 8.99998C16.2595 8.99998 16.2595 8.99998 16.2595 8.99998C16.2595 8.99998 16.2595 8.99998 16.2595 8.99998C16.2595 8.99998 16.2595 8.99998 16.2595 8.99998C16.2595 8.99998 16.2595 8.99998 16.2595 8.99998C16.2595 8.99998 16.2595 8.99998 16.2595 8.99998C16.2595 8.99998 16.2595 8.99998 16.2595 8.99998C16.2595 8.99998 16.2595 8.99998 16.2595 8.99998C16.2595 8.99998 16.2595 8.99998 16.2595 8.99998C16.2595 8.99998 16.2595 8.99998 16.2595 8.99998C16.2595 8.99998 16.2595 8.99998 16.2595 8.99998C16.2595 8.99998 16.2595 8.99998 16.2595 8.99998C16.2595 8.99998 16.2595 8.99998 16.2595 8.99998C16.2595 8.99998 16.2595 8.99998 16.2595 8.99998C16.2595 8.99998 16.2595 8.99998 16.2595 8.99998C16.2595 8.99998 16.2595 8.99998 16.2595 8.99998C16.2595 8.99998 16.2595 8.99998 16.2595 8.99998C16.2595 8.99998 16.2595 8.99998 16.2595 8.99998C16.2595 8.99998 16.2595 8.99998 16.2595 8.99998C16.2595 8.99998 16.2595 8.99998 16.2595 8.99998C16.2595 8.99998 16.2595 8.99998 16.2595 8.99998C16.2595 8.99998 16.2595 8.99998 16.2595 8.99998C16.2595 8.99998 16.2595 8.99998 16.2595 8.99998C16.2595 8.99998 16.2595 8.99998 16.2595 8.99998C16.2595 8.99998 16.2595 8.99998 16.2595 8.99998C16.2595 8.99998 16.2595 8.99998 16.2595 8.99998C16.2595 8.99998 16.2595 8.99998 16.2595 8.99998C16.2595 8.99998 16.2595 8.99998 16.2595 8.99998C16.2595 8.99998 16.2595 8.99998 16.2595 8.99998C16.2595 8.99998 16.2595 8.99998 16.2595 8.99998C16.2595 8.99998 16.2595 8.99998 16.2595 8.99998C16.2595 8.99998 16.2595 8.99998 16.2595 8.99998C16.2595 8.99998 16.2595 8.99998 16.2595 8.99998C16.2595 8.99998 16.2595 8.99998 16.2595 8.99998C16.2595 8.99998 16.2595 8.99998 16.2595 8.99998C16.2595 8.99998 16.2595 8.99998 16.2595 8.99998C16.2595 8.99998 16.2595 8.99998 16.2595 8.99998C16.2595 8.99998 16.2595 8.99998 16.2595 8.99998C16.2595 8.99998 16.2595 8.99998 16.2595 8.99998C16.2595 8.99998 16.2595 8.99998 16.2595 8.99998C16.2595 8.99998 16.2595 8.99998 16.2595 8.99998C16.2595 8.99998 16.2595 8.99998 16.2595 8.99998C16.2595 8.99998 16.2595 8.99998 16.2595 8.99998C16.2595 8.99998 16.2595 8.99998 16.2595 8.99998C16.2595 8.99998 16.2595 8.99998 16.2595 8.99998C16.2595 8.99998 16.2595 8.99998 16.2595 8.99998C16.2595 8.99998 16.2595 8.99998 16.2595 8.99998C16.2595 8.99998 16.2595 8.99998 16.2595 8.99998C16.2595 8.99998 16.2595 8.99998 16.2595 8.99998C16.2595 8.99998 16.2595 8.99998 16.2595 8.99998C16.2595 8.99998 16.2595 8.99998 16.2595 8.99998C16.2595 8.99998 16.2595 8.99998 16.2595 8.99998C16.2595 8.99998 16.2595 8.99998 16.2595 8.99998C16.2595 8.99998 16.2595 8.99998 16.2595 8.99998C16.2595 8.99998 16.2595 8.99998 16.2595 8.99998C16.2595 8.99998 16.2595 8.99998 16.2595 8.99998C16.2595 8.99998 16.2595 8.99998 16.2595 8.99998C16.2595 8.99998 16.2595 8.99998 16.2595 8.99998C16.2595 8.99998 16.2595 8.99998 16.2595 8.99998C16.2595 8.99998 16.2595 8.99998 16.2595 8.99998C16.2595 8.99998 16.2595 8.99998 16.2595 8.99998C16.2595 8.99998 16.2595 8.99998 16.2595 8.99998C16.2595 8.99998 16.2595 8.99998 16.2595 8.99998C16.2595 8.99998 16.2595 8.99998 16.2595 8.99998C16.2595 8.99998 16.2595 8.99998 16.2595 8.99998C16.2595 8.99998 16.2595 8.99998 16.2595 8.99998C16.2595 8.99998 16.2595 8.99998 16.2595 8.99998C16.2595 8.99998 16.2595 8.99998 16.2595 8.99998C16.2595 8.99998 16.2595 8.99998 16.2595 8.99998C16.2595 8.99998 16.2595 8.99998 16.2595 8.99998C16.2595 8.99998 16.2595 8.99998 16.2595 8.99998C16.2595 8.99998 16.2595 8.99998 16.2595 8.99998C16.2595 8.99998 16.2595 8.99998 16.2595 8.99998C16.2595 8.99998 16.2595 8.99998 16.2595 8.99998C16.2595 8.99998 16.2595 8.99998 16.2595 8.99998C16.2595 8.99998 16.2595 8.99998 16.2595 8.99998C16.2595 8.99998 16.2595 8.99998 16.2595 8.99998C16.2595 8.99998 16.2595 8.99998 16.2595 8.99998C16.2595 8.99998 16.2595 8.99998 16.2595 8.99998C16.2595 8.99998 16.2595 8.99998 16.2595 8.99998C16.2595 8.99998 16.2595 8.99998 16.2595 8.99998C16.2595 8.99998 16.2595 8.99998 16.2595 8.99998C16.2595 8.99998 16.2595 8.99998 16.2595 8.99998C16.2595 8.99998 16.2595 8.99998 16.2595 8.99998C16.2595 8.99998 16.2595 8.99998 16.2595 8.99998C16.2595 8.99998 16.2595 8.99998 16.2595 8.99998C16.2595 8.99998 16.2595 8.99998 16.2595 8.99998C16.2595 8.99998 16.2595 8.99998 16.2595 8.99998C16.2595 8.99998 16.2595 8.99998 16.2595 8.99998C16.2595 8.99998 16.2595 8.99998 16.2595 8.99998C16.2595 8.99998 16.2595 8.99998 16.2595 8.99998C16.2595 8.99998 16.2595 8.99998 16.2595 8.99998C16.2595 8.99998 16.2595 8.99998 16.2595 8.99998C16.2595 8.99998 16.2595 8.99998 16.2595 8.99998C16.2595 8.99998 16.2595 8.99998 16.2595 8.99998C16.2595 8.99998 16.2595 8.99998 16.2595 8.99998C16.2595 8.99998 16.2595 8.99998 16.2595 8.99998C16.2595 8.99998 16.2595 8.99998 16.2595 8.99998C16.2595 8.99998 16.2595 8.99998 16.2595 8.99998C16.2595 8.99998 16.2595 8.99998 16.2595 8.99998C16.2595 8.99998 16.2595 8.99998 16.2595 8.99998C16.2595 8.99998 16.2595 8.99998 16.2595 8.99998C16.2595 8.99998 16.2595 8.99998 16.2595 8.99998C16.2595 8.99998 16.2595 8.99998 16.2595 8.99998C16.2595 8.99998 16.2595 8.99998 16.2595 8.99998C16.2595 8.99998 16.2595 8.99998 16.2595 8.99998C16.2595 8.99998 16.2595 8.99998 16.2595 8.99998C16.2595 8.99998 16.2595 8.99998 16.2595 8.99998C16.2595 8.99998 16.2595 8.99998 16.2595 8.99998C16.2595 8.99998 16.2595 8.99998 16.2595 8.99998C16.2595 8.99998 16.2595 8.99998 16.2595 8.99998C16.2595 8.99998 16.2595 8.99998 16.2595 8.99998C16.2595 8.99998 16.2595 8.99998 16.2595 8.99998C16.2595 8.99998 16.2595 8.99998 16.2595 8.99998C16.2595 8.99998 16.2595 8.99998 16.2595 8.99998C16.2595 8.99998 16.2595 8.99998 16.2595 8.99998C16.2595 8.99998 16.2595 8.99998 16.2595 8.99998C16.2595 8.99998 16.2595 8.99998 16.2595 8.99998C16.2595 8.99998 16.2595 8.99998 16.2595 8.99998C16.2595 8.99998 16.2595 8.99998 16.2595 8.99998C16.2595 8.99998 16.2595 8.99998 16.2595 8.99998C16.2595 8.99998 16.2595 8.99998 16.2595 8.99998C16.2595 8.99998 16.2595 8.99998 16.2595 8.99998C16.2595 8.99998 16.2595 8.99998 16.2595 8.99998C16.2595 8.99998 16.2595 8.99998 16.2595 8.99998C16.2595 8.99998 16.2595 8.99998 16.2595 8.99998C16.2595 8.99998 16.2595 8.99998 16.2595 8.99998C16.2595 8.99998 16.2595 8.99998 16.2595 8.99998C16.2595 8.99998 16.2595 8.99998 16.2595 8.99998C16.2595 8.99998 16.2595 8.99998 16.2595 8.99998C16.2595 8.99998 16.2595 8.99998 16.2595 8.99998C16.2595 8.99998 16.2595 8.99998 16.2595 8.99998C16.2595 8.99998 16.2595 8.99998 16.2595 8.99998C16.2595 8.99998 16.2595 8.99998 16.2595 8.99998C16.2595 8.99998 16.2595 8.99998 16.2595 8.99998C16.2595 8.99998 16.2595 8.99998 16.2595 8.99998C16.2595 8.99998 16.2595 8.99998 16.2595 8.99998C16.2595 8.99998 16.2595 8.99998 16.2595 8.99998C16.2595 8.99998 16.2595 8.99998 16.2595 8.99998C16.2595 8.99998 16.2595 8.99998 16.2595 8.99998C16.2595 8.99998 16.2595 8.99998 16.2595 8.99998C16.2595 8.99998 16.2595 8.99998 16.2595 8.99998C16.2595 8.99998 16.2595 8.99998 16.2595 8.99998C16.2595 8.99998 16.2595 8.99998 16.2595 8.99998C16.2595 8.99998 16.2595 8.99998 16.2595 8.99998C16.2595 8.99998 16.2595 8.99998 16.2595 8.99998C16.2595 8.99998 16.2595 8.99998 16.2595 8.99998C16.2595 8.99998 16.2595 8.99998 16.2595 8.99998C16.2595 8.99998 16.2595 8.99998 16.2595 8.99998C16.2595 8.99998 16.2595 8.99998 16.2595 8.99998C16.2595 8.99998 16.2595 8.99998 16.2595 8.99998C16.2595 8.99998 16.2595 8.99998 16.2595 8.99998C16.2595 8.99998 16.2595 8.99998 16.2595 8.99998C16.2595 8.99998 16.2595 8.99998 16.2595 8.99998C16.2595 8.99998 16.2595 8.99998 16.2595 8.99998C16.2595 8.99998 16.2595 8.99998 16.2595 8.99998C16.2595 8.99998 16.2595 8.99998 16.2595 8.99998C16.2595 8.99998 16.2595 8.99998 16.2595 8.99998C16.2595 8.99998 16.2595 8.99998 16.2595 8.99998C16.2595 8.99998 16.2595 8.99998 16.2595 8.99998C16.2595 8.99998 16.2595 8.99998 16.2595 8.99998C16.2595 8.99998 16.2595 8.99998 16.2595 8.99998C16.2595 8.99998 16.2595 8.99998 16.2595 8.99998C16.2595 8.99998 16.2595 8.99998 16.2595 8.99998C16.2595 8.99998 16.2595 8.99998 16.2595 8.99998C16.2595 8.99998 16.2595 8.99998 16.2595 8.99998C16.2595 8.99998 16.2595 8.99998 16.2595 8.99998C16.2595 8.99998 16.2595 8.99998 16.2595 8.99998C16.2595 8.99998 16.2595 8.99998 16.2595 8.99998C16.2595 8.99998 16.2595 8.99998 16.2595 8.99998C16.2595 8.99998 16.2595 8.99998 16.2595 8.99998C16.2595 8.99998 16.2595 8.99998 16.2595 8.99998C16.2595 8.99998 16.2595 8.99998 16.2595 8.99998C16.2595 8.99998 16.2595 8.99998 16.2595 8.99998C16.2595 8.99998 16.2595 8.99998 16.2595 8.99998C16.2595 8.99998 16.2595 8.99998 16.2595 8.99998C16.2595 8.99998 16.2595 8.99998 16.2595 8.99998C16.2595 8.99998 16.2595 8.99998 16.2595 8.99998C16.2595 8.99998 16.2595 8.99998 16.2595 8.99998C16.2595 8.99998 16.2595 8.99998 16.2595 8.99998C16.2595 8.99998 16.2595 8.99998 16.2595 8.99998C16.2595 8.99998 16.2595 8.99998 16.2595 8.99998C16.2595 8.99998 16.2595 8.99998 16.2595 8.99998C16.2595 8.99998 16.2595 8.99998 16.2595 8.99998C16.2595 8.99998 16.2595 8.99998 16.2595 8.99998C16.2595 8.99998 16.2595 8.99998 16.2595 8.99998C16.2595 8.99998 16.2595 8.99998 16.2595 8.99998C16.2595 8.99998 16.2595 8.99998 16.2595 8.99998C16.2595 8.99998 16.2595 8.99998 16.2595 8.99998C16.2595 8.99998 16.2595 8.99998 16.2595 8.99998C16.2595 8.99998 16.2595 8.99998 16.2595 8.99998C16.2595 8.99998 16.2595 8.99998 16.2595 8.99998C16.2595 8.99998 16.2595 8.99998 16.2595 8.99998C16.2595 8.99998 16.2595 8.99998 16.2595 8.99998C16.2595 8.99998 16.2595 8.99998 16.2595 8.99998C16.2595 8.99998 16.2595 8.99998 16.2595 8.99998C16.2595 8.99998 16.2595 8.99998 16.2595 8.99998C16.2595 8.99998 16.2595 8.99998 16.2595 8.99998C16.2595 8.99998 16.2595 8.99998 16.2595 8.99998C16.2595 8.99998 16.2595 8.99998 16.2595 8.99998C16.2595 8.99998 16.2595 8.99998 16.2595 8.99998C16.2595 8.99998 16.2595 8.99998 16.2595 8.99998C16.2595 8.99998 16.2595 8.99998 16.2595 8.99998C16.2595 8.99998 16.2595 8.99998 16.2595 8.99998C16.2595 8.99998 16.2595 8.99998 16.2595 8.99998C16.2595 8.99998 16.2595 8.99998 16.2595 8.99998C16.2595 8.99998 16.2595 8.99998 16.2595 8.99998C16.2595 8.99998 16.2595 8.99998 16.2595 8.99998C16.2595 8.99998 16.2595 8.99998 16.2595 8.99998C16.2595 8.99998 16.2595 8.99998 16.2595 8.99998C16.2595 8.99998 16.2595 8.99998 16.2595 8.99998C16.2595 8.99998 16.2595 8.99998 16.2595 8.99998C16.2595 8.99998 16.2595 8.99998 16.2595 8.99998C16.2595 8.99998 16.2595 8.99998 16.2595 8.99998C16.2595 8.99998 16.2595 8.99998 16.2595 8.99998C16.2595 8.99998 16.2595 8.99998 16.2595 8.99998C16.2595 8.99998 16.2595 8.99998 16.2595 8.99998C16.2595 8.99998 16.2595 8.99998 16.2595 8.99998C16.2595 8.99998 16.2595 8.99998 16.2595 8.99998C16.2595 8.99998 16.2595 8.99998 16.2595 8.99998C16.2595 8.99998 16.2595 8.99998 16.2595 8.99998C16.2595 8.99998 16.2595 8.99998 16.2595 8.99998C16.2595 8.99998 16.2595 8.99998 16.2595 8.99998C16.2595 8.99998 16.2595 8.99998 16.2595 8.99998C16.2595 8.99998 16.2595 8.99998 16.2595 8.99998C16.2595 8.99998 16.2595 8.99998 16.2595 8.99998C16.2595 8.99998 16.2595 8.99998 16.2595 8.99998C16.2595 8.99998 16.2595 8.99998 16.2595 8.99998C16.2595 8.99998 16.2595 8.99998 16.2595 8.99998C16.2595 8.99998 16.2595 8.99998 16.2595 8.99998C16.2595 8.99998 16.2595 8.99998 16.2595 8.99998C16.2595 8.99998 16.2595 8.99998 16.2595 8.99998C16.2595 8.99998 16.2595 8.99998 16.2595 8.99998C16.2595 8.99998 16.2595 8.99998 16.2595 8.99998C16.2595 8.99998 16.2595 8.99998 16.2595 8.99998C16.2595 8.99998 16.2595 8.99998 16.2595 8.99998C16.2595 8.99998 16.2595 8.99998 16.2595 8.99998C16.2595 8.99998 16.2595 8.99998 16.2595 8.99998C16.2595 8.99998 16.2595 8.99998 16.2595 8.99998C16.2595 8.99998 16.2595 8.99998 16.2595 8.99998C16.2595 8.99998 16.2595 8.99998 16.2595 8.99998C16.2595 8.99998 16.2595 8.99998 16.2595 8.99998C16.2595 8.99998 16.2595 8.99998 16.2595 8.99998C16.2595 8.99998 16.2595 8.99998 16.2595 8.99998C16.2595 8.99998 16.2595 8.99998 16.2595 8.99998C16.2595 8.99998 16.2595 8.99998 16.2595 8.99998C16.2595 8.99998 16.2595 8.99998 16.2595 8.99998C16.2595 8.99998 16.2595 8.99998 16.2595 8.99998C16.2595 8.99998 16.2595 8.99998 16.2595 8.99998C16.2595 8.99998 16.2595 8.99998 16.2595 8.99998C16.2595 8.99998 16.2595 8.99998 16.2595 8.99998C16.2595 8.99998 16.2595 8.99998 16.2595 8.99998C16.2595 8.99998 16.2595 8.99998 16.2595 8.99998C16.2595 8.99998 16.2595 8.99998 16.2595 8.99998C16.2595 8.99998 16.2595 8.99998 16.2595 8.99998C16.2595 8.99998 16.2595 8.99998 16.2595 8.99998C16.2595 8.99998 16.2595 8.99998 16.2595 8.99998C16.2595 8.99998 16.2595 8.99998 16.2595 8.99998C16.2595 8.99998 16.2595 8.99998 16.2595 8.99998C16.2595 8.99998 16.2595 8.99998 16.2595 8.99998C16.2595 8.99998 16.2595 8.99998 16.2595 8.99998C16.2595 8.99998 16.2595 8.99998 16.2595 8.99998C16.2595 8.99998 16.2595 8.99998 16.2595 8.99998C16.2595 8.99998 16.2595 8.99998 16.2595 8.99998C16.2595 8.99998 16.2595 8.99998 16.2595 8.99998C16.2595 8.99998 16.2595 8.99998 16.2595 8.99998C16.2595 8.99998 16.2595 8.99998 16.2595 8.99998C16.2595 8.99998 16.2595 8.99998 16.2595 8.99998C16.2595 8.99998 16.2595 8.99998 16.2595 8.99998C16.2595 8.99998 16.2595 8.99998 16.2595 8.99998C16.2595 8.99998 16.2595 8.99998 16.2595 8.99998C16.2595 8.99998 16.2595 8.99998 16.2595 8.99998C16.2595 8.99998 16.2595 8.99998 16.2595 8.99998C16.2595 8.99998 16.2595 8.99998 16.2595 8.99998C16.2595 8.99998 16.2595 8.99998 16.2595 8.99998C16.2595 8.99998 16.2595 8.99998 16.2595 8.99998C16.2595 8.99998 16.2595 8.99998 16.2595 8.99998C16.2595 8.99998 16.2595 8.99998 16.2595 8.99998C16.2595 8.99998 16.2595 8.99998 16.2595 8.99998C16.2595 8.99998 16.2595 8.99998 16.2595 8.99998C16.2595 8.99998 16.2595 8.99998 16.2595 8.99998C16.2595 8.99998 16.2595 8.99998 16.2595 8.99998C16.2595 8.99998 16.2595 8.99998 16.2595 8.99998C16.2595 8.99998 16.2595 8.99998 16.2595 8.99998C16.2595 8.99998 16.2595 8.99998 16.2595 8.99998C16.2595 8.99998 16.2595 8.99998 16.2595 8.99998C16.2595 8.99998 16.2595 8.99998 16.2595 8.99998C16.2595 8.99998 16.2595 8.99998 16.2595 8.99998C16.2595 8.99998 16.2595 8.99998 16.2595 8.99998C16.2595 8.99998 16.2595 8.99998 16.2595 8.99998C16.2595 8.99998 16.2595 8.99998 16.2595 8.99998C16.2595 8.99998 16.2595 8.99998 16.2595 8.99998C16.2595 8.99998 16.2595 8.99998 16.2595 8.99998C16.2595 8.99998 16.2595 8.99998 16.2595 8.99998C16.2595 8.99998 16.2595 8.99998 16.2595 8.99998C16.2595 8.99998 16.2595 8.99998 16.2595 8.99998C16.2595 8.99998 16.2595 8.99998 16.2595 8.99998C16.2595 8.99998 16.2595 8.99998 16.2595 8.99998C16.2595 8.99998 16.2595 8.99998 16.2595 8.99998C16.2595 8.99998 16.2595 8.99998 16.2595 8.99998C16.2595 8.99998 16.2595 8.99998 16.2595 8.99998C16.2595 8.99998 16.2595 8.99998 16.2595 8.99998C16.2595 8.99998 16.2595 8.99998 16.2595 8.99998C16.2595 8.99998 16.2595 8.99998 16.2595 8.99998C16.2595 8.99998 16.2595 8.99998 16.2595 8.99998C16.2595 8.99998 16.2595 8.99998 16.2595 8.99998C16.2595 8.99998 16.2595 8.99998 16.2595 8.99998C16.2595 8.99998 16.2595 8.99998 16.2595 8.99998C16.2595 8.99998 16.2595 8.99998 16.2595 8.99998C16.2595 8.99998 16.2595 8.99998 16.2595 8.99998C16.2595 8.99998 16.2595 8.99998 16.2595 8.99998C16.2595 8.99998 16.2595 8.99998 16.2595 8.99998C16.2595 8.99998 16.2595 8.99998 16.2595 8.99998C16.2595 8.99998 16.2595 8.99998 16.2595 8.99998C16.2595 8.99998 16.2595 8.99998 16.2595 8.99998C16.2595 8.99998 16.2595 8.99998 16.2595 8.99998C16.2595 8.99998 16.2595 8.99998 16.2595 8.99998C16.2595 8.99998 16.2595 8.99998 16.2595 8.99998C16.2595 8.99998 16.2595 8.99998 16.2595 8.99998C16.2595 8.99998 16.2595 8.99998 16.2595 8.99998C16.2595 8.99998 16.2595 8.99998 16.2595 8.99998C16.2595 8.99998 16.2595 8.99998 16.2595 8.99998C16.2595 8.99998 16.2595 8.99998 16.2595 8.99998C16.2595 8.99998 16.2595 8.99998 16.2595 8.99998C16.2595 8.99998 16.2595 8.99998 16.2595 8.99998C16.2595 8.99998 16.2595 8.99998 16.2595 8.99998C16.2595 8.99998 16.2595 8.99998 16.2595 8.99998C16.2595 8.99998 16.2595 8.99998 16.2595 8.99998C16.2595 8.99998 16.2595 8.99998 16.2595 8.99998C16.2595 8.99998 16.2595 8.99998 16.2595 8.99998C16.2595 8.99998 16.2595 8.99998 16.2595 8.99998C16.2595 8.99998 16.2595 8.99998 16.2595 8.99998C16.2595 8.99998 16.2595 8.99998 16.2595 8.99998C16.2595 8.99998 16.2595 8.99998 16.2595 8.99998C16.2595 8.99998 16.2595 8.99998 16.2595 8.99998C16.2595 8.99998 16.2595 8.99998 16.2595 8.99998C16.2595 8.99998 16.2595 8.99998 16.2595 8.99998C16.2595 8.99998 16.2595 8.99998 16.2595 8.99998C16.2595 8.99998 16.2595 8.99998 16.2595 8.99998C16.2595 8.99998 16.2595 8.99998 16.2595 8.99998C16.2595 8.99998 16.2595 8.99998 16.2595 8.99998C16.2595 8.99998 16.2595 8.99998 16.2595 8.99998C16.2595 8.99998 16.2595 8.99998 16.2595 8.99998C16.2595 8.99998 16.2595 8.99998 16.2595 8.99998C16.2595 8.99998 16.2595 8.99998 16.2595 8.99998C16.2595 8.99998 16.2595 8.99998 16.2595 8.99998C16.2595 8.99998 16.2595 8.99998 16.2595 8.99998C16.2595 8.99998 16.2595 8.99998 16.2595 8.99998C16.2595 8.99998 16.2595 8.99998 16.2595 8.99998C16.2595 8.99998 16.2595 8.99998 16.2595 8.99998C16.2595 8.99998 16.2595 8.99998 16.2595 8.99998C16.2595 8.99998 16.2595 8.99998 16.2595 8.99998C16.2595 8.99998 16.2595 8.99998 16.2595 8.99998C16.2595 8.99998 16.2595 8.99998 16.2595 8.99998C16.2595 8.99998 16.2595 8.99998 16.2595 8.99998C16.2595 8.99998 16.2595 8.99998 16.2595 8.99998C16.2595 8.99998 16.2595 8.99998 16.2595 8.99998C16.2595 8.99998 16.2595 8.99998 16.2595 8.99998C16.2595 8.99998 16.2595 8.99998 16.2595 8.99998C16.2595 8.99998 16.2595 8.99998 16.2595 8.99998C16.2595 8.99998 16.2595 8.99998 16.2595 8.99998C16.2595 8.99998 16.2595 8.99998 16.2595 8.99998C16.2595 8.99998 16.2595 8.99998 16.2595 8.99998C16.2595 8.99998 16.2595 8.99998 16.2595 8.99998C16.2595 8.99998 16.2595 8.99998 16.2595 8.99998C16.2595 8.99998 16.2595 8.99998 16.2595 8.99998C16.2595 8.99998 16.2595 8.99998 16.2595 8.99998C16.2595 8.99998 16.2595 8.99998 16.2595 8.99998C16.2595 8.99998 16.2595 8.99998 16.2595 8.99998C16.2595 8.99998 16.2595 8.99998 16.2595 8.99998C16.2595 8.99998 16.2595 8.99998 16.2595 8.99998C16.2595 8.99998 16.2595 8.99998 16.2595 8.99998C16.2595 8.99998 16.2595 8.99998 16.2595 8.99998C16.2595 8.99998 16.2595 8.99998 16.2595 8.99998C16.2595 8.99998 16.2595 8.99998 16.2595 8.99998C16.2595 8.99998 16.2595 8.99998 16.2595 8.99998C16.2595 8.99998 16.2595 8.99998 16.2595 8.99998C16.2595 8.99998 16.2595 8.99998 16.2595 8.99998C16.2595 8.99998 16.2595 8.99998 16.2595 8.99998C16.2595 8.99998 16.2595 8.99998 16.2595 8.99998C16.2595 8.99998 16.2595 8.99998 16.2595 8.99998C16.2595 8.99998 16.2595 8.99998 16.2595 8.99998C16.2595 8.99998 16.2595 8.99998 16.2595 8.99998C16.2595 8.99998 16.2595 8.99998 16.2595 8.99998C16.2595 8.99998 16.2595 8.99998 16.2595 8.99998C16.2595 8.99998 16.2595 8.99998 16.2595 8.99998C16.2595 8.99998 16.2595 8.99998 16.2595 8.99998C16.2595 8.99998 16.2595 8.99998 16.2595 8.99998C16.2595 8.99998 16.2595 8.99998 16.2595 8.99998C16.2595 8.99998 16.2595 8.99998 16.2595 8.99998C16.2595 8.99998 16.2595 8.99998 16.2595 8.99998C16.2595 8.99998 16.2595 8.99998 16.2595 8.99998C16.2595 8.99998 16.2595 8.99998 16.2595 8.99998C16.2595 8.99998 16.2595 8.99998 16.2595 8.99998C16.2595 8.99998 16.2595 8.99998 16.2595 8.99998C16.2595 8.99998 16.2595 8.99998 16.2595 8.99998C16.2595 8.99998 16.2595 8.99998 16.2595 8.99998C16.2595 8.99998 16.2595 8.99998 16.2595 8.99998C16.2595 8.99998 16.2595 8.99998 16.2595 8.99998C16.2595 8.99998 16.2595 8.99998 16.2595 8.99998C16.2595 8.99998 16.2595 8.99998 16.2595 8.99998C16.2595 8.99998 16.2595 8.99998 16.2595 8.99998C16.2595 8.99998 16.2595 8.99998 16.2595 8.99998C16.2595 8.99998 16.2595 8.99998 16.2595 8.99998C16.2595 8.99998 16.2595 8.99998 16.2595 8.99998C16.2595 8.99998 16.2595 8.99998 16.2595 8.99998C16.2595 8.99998 16.2595 8.99998 16.2595 8.99998C16.2595 8.99998 16.2595 8.99998 16.2595 8.99998C16.2595 8.99998 16.2595 8.99998 16.2595 8.99998C16.2595 8.99998 16.2595 8.99998 16.2595 8.99998C16.2595 8.99998 16.2595 8.99998 16.2595 8.99998C16.2595 8.99998 16.2595 8.99998 16.2595 8.99998C16.2595 8.99998 16.2595 8.99998 16.2595 8.99998C16.2595 8.99998 16.2595 8.99998 16.2595 8.99998C16.2595 8.99998 16.2595 8.99998 16.2595 8.99998C16.2595 8.99998 16.2595 8.99998 16.2595 8.99998C16.2595 8.99998 16.2595 8.99998 16.2595 8.99998C16.2595 8.99998 16.2595 8.99998 16.2595 8.99998C16.2595 8.99998 16.2595 8.99998 16.2595 8.99998C16.2595 8.99998 16.2595 8.99998 16.2595 8.99998C16.2595 8.99998 16.2595 8.99998 16.2595 8.99998C16.2595 8.99998 16.2595 8.99998 16.2595 8.99998C16.2595 8.99998 16.2595 8.99998 16.2595 8.99998C16.2595 8.99998 16.2595 8.99998 16.2595 8.99998C16.2595 8.99998 16.2595 8.99998 16.2595 8.99998C16.2595 8.99998 16.2595 8.99998 16.2595 8.99998C16.2595 8.99998 16.2595 8.99998 16.2595 8.99998C16.2595 8.99998 16.2595 8.99998 16.2595 8.99998C16.2595 8.99998 16.2595 8.99998 16.2595 8.99998C16.2595 8.99998 16.2595 8.99998 16.2595 8.99998C16.2595 8.99998 16.2595 8.99998 16.2595 8.99998C16.2595 8.99998 16.2595 8.99998 16.2595 8.99998C16.2595 8.99998 16.2595 8.99998 16.2595 8.99998C16.2595 8.99998 16.2595 8.99998 16.2595 8.99998C16.2595 8.99998 16.2595 8.99998 16.2595 8.99998C16.2595 8.99998 16.2595 8.99998 16.2595 8.99998C16.2595 8.99998 16.2595 8.99998 16.2595 8.99998C16.2595 8.99998 16.2595 8.99998 16.2595 8.99998C16.2595 8.99998 16.2595 8.99998 16.2595 8.99998C16.2595 8.99998 16.2595 8.99998 16.2595 8.99998C16.2595 8.99998 16.2595 8.99998 16.2595 8.99998C16.2595 8.99998 16.2595 8.99998 16.2595 8.99998C16.2595 8.99998 16.2595 8.99998 16.2595 8.99998C16.2595 8.99998 16.2595 8.99998 16.2595 8.99998C16.2595 8.99998 16.2595 8.99998 16.2595 8.99998C16.2595 8.99998 16.2595 8.99998 16.2595 8.99998C16.2595 8.99998 16.2595 8.99998 16.2595 8.99998C16.2595 8.99998 16.2595 8.99998 16.2595 8.99998C16.2595 8.99998 16.2595 8.99998 16.2595 8.99998C16.2595 8.99998 16.2595 8.99998 16.2595 8.99998C16.2595 8.99998 16.2595 8.99998 16.2595 8.99998C16.2595 8.99998 16.2595 8.99998 16.2595 8.99998C16.2595 8.99998 16.2595 8.99998 16.2595 8.99998C16.2595 8.99998 16.2595 8.99998 16.2595 8.99998C16.2595 8.99998 16.2595 8.99998 16.2595 8.99998C16.2595 8.99998 16.2595 8.99998 16.2595 8.99998C16.2595 8.99998 16.2595 8.99998 16.2595 8.99998C16.2595 8.99998 16.2595 8.99998 16.2595 8.99998V11C16.2595 11 16.2595 11 16.2595 11C16.2595 11 16.2595 11 16.2595 11C16.2595 11 16.2595 11 16.2595 11C16.2595 11 16.2595 11 16.2595 11C16.2595 11 16.2595 11 16.2595 11C16.2595 11 16.2595 11 16.2595 11C16.2595 11 16.2595 11 16.2595 11C16.2595 11 16.2595 11 16.2595 11C16.2595 11 16.2595 11 16.2595 11C16.2595 11 16.2595 11 16.2595 11C16.2595 11 16.2595 11 16.2595 11C16.2595 11 16.2595 11 16.2595 11C16.2595 11 16.2595 11 16.2595 11C16.2595 11 16.2595 11 16.2595 11C16.2595 11 16.2595 11 16.2595 11C16.2595 11 16.2595 11 16.2595 11C16.2595 11 16.2595 11 16.2595 11C16.2595 11 16.2595 11 16.2595 11C16.2595 11 16.2595 11 16.2595 11C16.2595 11 16.2595 11 16.2595 11C16.2595 11 16.2595 11 16.2595 11C16.2595 11 16.2595 11 16.2595 11C16.2595 11 16.2595 11 16.2595 11C16.2595 11 16.2595 11 16.2595 11C16.2595 11 16.2595 11 16.2595 11C16.2595 11 16.2595 11 16.2595 11C16.2595 11 16.2595 11 16.2595 11C16.2595 11 16.2595 11 16.2595 11C16.2595 11 16.2595 11 16.2595 11C16.2595 11 16.2595 11 16.2595 11C16.2595 11 16.2595 11 16.2595 11C16.2595 11 16.2595 11 16.2595 11C16.2595 11 16.2595 11 16.2595 11C16.2595 11 16.2595 11 16.2595 11C16.2595 11 16.2595 11 16.2595 11C16.2595 11 16.2595 11 16.2595 11C16.2595 11 16.2595 11 16.2595 11C16.2595 11 16.2595 11 16.2595 11C16.2595 11 16.2595 11 16.2595 11C16.2595 11 16.2595 11 16.2595 11C16.2595 11 16.2595 11 16.2595 11C16.2595 11 16.2595 11 16.2595 11C16.2595 11 16.2595 11 16.2595 11C16.2595 11 16.2595 11 16.2595 11C16.2595 11 16.2595 11 16.2595 11C16.2595 11 16.2595 11 16.2595 11C16.2595 11 16.2595 11 16.2595 11C16.2595 11 16.2595 11 16.2595 11C16.2595 11 16.2595 11 16.2595 11C16.2595 11 16.2595 11 16.2595 11C16.2595 11 16.2595 11 16.2595 11C16.2595 11 16.2595 11 16.2595 11C16.2595 11 16.2595 11 16.2595 11C16.2595 11 16.2595 11 16.2595 11C16.2595 11 16.2595 11 16.2595 11C16.2595 11 16.2595 11 16.2595 11C16.2595 11 16.2595 11 16.2595 11C16.2595 11 16.2595 11 16.2595 11C16.2595 11 16.2595 11 16.2595 11C16.2595 11 16.2595 11 16.2595 11C16.2595 11 16.2595 11 16.2595 11C16.2595 11 16.2595 11 16.2595 11C16.2595 11 16.2595 11 16.2595 11C16.2595 11 16.2595 11 16.2595 11C16.2595 11 16.2595 11 16.2595 11C16.2595 11 16.2595 11 16.2595 11C16.2595 11 16.2595 11 16.2595 11C16.2595 11 16.2595 11 16.2595 11C16.2595 11 16.2595 11 16.2595 11C16.2595 11 16.2595 11 16.2595 11C16.2595 11 16.2595 11 16.2595 11C16.2595 11 16.2595 11 16.2595 11C16.2595 11 16.2595 11 16.2595 11C16.2595 11 16.2595 11 16.2595 11C16.2595 11 16.2595 11 16.2595 11C16.2595 11 16.2595 11 16.2595 11C16.2595 11 16.2595 11 16.2595 11C16.2595 11 16.2595 11 16.2595 11C16.2595 11 16.2595 11 16.2595 11C16.2595 11 16.2595 11 16.2595 11C16.2595 11 16.2595 11 16.2595 11C16.2595 11 16.2595 11 16.2595 11C16.2595 11 16.2595 11 16.2595 11C16.2595 11 16.2595 11 16.2595 11C16.2595 11 16.2595 11 16.2595 11C16.2595 11 16.2595 11 16.2595 11C16.2595 11 16.2595 11 16.2595 11C16.2595 11 16.2595 11 16.2595 11C16.2595 11 16.2595 11 16.2595 11C16.2595 11 16.2595 11 16.2595 11C16.2595 11 16.2595 11 16.2595 11C16.2595 11 16.2595 11 16.2595 11C16.2595 11 16.2595 11 16.2595 11C16.2595 11 16.2595 11 16.2595 11C16.2595 11 16.2595 11 16.2595 11C16.2595 11 16.2595 11 16.2595 11C16.2595 11 16.2595 11 16.2595 11C16.2595 11 16.2595 11 16.2595 11C16.2595 11 16.2595 11 16.2595 11C16.2595 11 16.2595 11 16.2595 11C16.2595 11 16.2595 11 16.2595 11C16.2595 11 16.2595 11 16.2595 11C16.2595 11 16.2595 11 16.2595 11C16.2595 11 16.2595 11 16.2595 11C16.2595 11 16.2595 11 16.2595 11C16.2595 11 16.2595 11 16.2595 11C16.2595 11 16.2595 11 16.2595 11C16.2595 11 16.2595 11 16.2595 11C16.2595 11 16.2595 11 16.2595 11C16.2595 11 16.2595 11 16.2595 11C16.2595 11 16.2595 11 16.2595 11C16.2595 11 16.2595 11 16.2595 11C16.2595 11 16.2595 11 16.2595 11C16.2595 11 16.2595 11 16.2595 11C16.2595 11 16.2595 11 16.2595 11C16.2595 11 16.2595 11 16.2595 11C16.2595 11 16.2595 11 16.2595 11C16.2595 11 16.2595 11 16.2595 11C16.2595 11 16.2595 11 16.2595 11C16.2595 11 16.2595 11 16.2595 11C16.2595 11 16.2595 11 16.2595 11C16.2595 11 16.2595 11 16.2595 11C16.2595 11 16.2595 11 16.2595 11C16.2595 11 16.2595 11 16.2595 11C16.2595 11 16.2595 11 16.2595 11C16.2595 11 16.2595 11 16.2595 11C16.2595 11 16.2595 11 16.2595 11C16.2595 11 16.2595 11 16.2595 11C16.2595 11 16.2595 11 16.2595 11C16.2595 11 16.2595 11 16.2595 11C16.2595 11 16.2595 11 16.2595 11C16.2595 11 16.2595 11 16.2595 11C16.2595 11 16.2595 11 16.2595 11C16.2595 11 16.2595 11 16.2595 11C16.2595 11 16.2595 11 16.2595 11C16.2595 11 16.2595 11 16.2595 11C16.2595 11 16.2595 11 16.2595 11C16.2595 11 16.2595 11 16.2595 11C16.2595 11 16.2595 11 16.2595 11C16.2595 11 16.2595 11 16.2595 11C16.2595 11 16.2595 11 16.2595 11C16.2595 11 16.2595 11 16.2595 11C16.2595 11 16.2595 11 16.2595 11C16.2595 11 16.2595 11 16.2595 11C16.2595 11 16.2595 11 16.2595 11C16.2595 11 16.2595 11 16.2595 11C16.2595 11 16.2595 11 16.2595 11C16.2595 11 16.2595 11 16.2595 11C16.2595 11 16.2595 11 16.2595 11C16.2595 11 16.2595 11 16.2595 11C16.2595 11 16.2595 11 16.2595 11C16.2595 11 16.2595 11 16.2595 11C16.2595 11 16.2595 11 16.2595 11C16.2595 11 16.2595 11 16.2595 11C16.2595 11 16.2595 11 16.2595 11C16.2595 11 16.2595 11 16.2595 11C16.2595 11 16.2595 11 16.2595 11C16.2595 11 16.2595 11 16.2595 11C16.2595 11 16.2595 11 16.2595 11C16.2595 11 16.2595 11 16.2595 11C16.2595 11 16.2595 11 16.2595 11C16.2595 11 16.2595 11 16.2595 11C16.2595 11 16.2595 11 16.2595 11C16.2595 11 16.2595 11 16.2595 11C16.2595 11 16.2595 11 16.2595 11C16.2595 11 16.2595 11 16.2595 11C16.2595 11 16.2595 11 16.2595 11C16.2595 11 16.2595 11 16.2595 11C16.2595 11 16.2595 11 16.2595 11C16.2595 11 16.2595 11 16.2595 11C16.2595 11 16.2595 11 16.2595 11C16.2595 11 16.2595 11 16.2595 11C16.2595 11 16.2595 11 16.2595 11C16.2595 11 16.2595 11 16.2595 11C16.2595 11 16.2595 11 16.2595 11C16.2595 11 16.2595 11 16.2595 11C16.2595 11 16.2595 11 16.2595 11C16.2595 11 16.2595 11 16.2595 11C16.2595 11 16.2595 11 16.2595 11C16.2595 11 16.2595 11 16.2595 11C16.2595 11 16.2595 11 16.2595 11C16.2595 11 16.2595 11 16.2595 11C16.2595 11 16.2595 11 16.2595 11C16.2595 11 16.2595 11 16.2595 11C16.2595 11 16.2595 11 16.2595 11C16.2595 11 16.2595 11 16.2595 11C16.2595 11 16.2595 11 16.2595 11C16.2595 11 16.2595 11 16.2595 11C16.2595 11 16.2595 11 16.2595 11C16.2595 11 16.2595 11 16.2595 11C16.2595 11 16.2595 11 16.2595 11C16.2595 11 16.2595 11 16.2595 11C16.2595 11 16.2595 11 16.2595 11C16.2595 11 16.2595 11 16.2595 11C16.2595 11 16.2595 11 16.2595 11C16.2595 11 16.2595 11 16.2595 11C16.2595 11 16.2595 11 16.2595 11C16.2595 11 16.2595 11 16.2595 11C16.2595 11 16.2595 11 16.2595 11C16.2595 11 16.2595 11 16.2595 11C16.2595 11 16.2595 11 16.2595 11C16.2595 11 16.2595 11 16.2595 11C16.2595 11 16.2595 11 16.2595 11C16.2595 11 16.2595 11 16.2595 11C16.2595 11 16.2595 11 16.2595 11C16.2595 11 16.2595 11 16.2595 11C16.2595 11 16.2595 11 16.2595 11C16.2595 11 16.2595 11 16.2595 11C16.2595 11 16.2595 11 16.2595 11C16.2595 11 16.2595 11 16.2595 11C16.2595 11 16.2595 11 16.2595 11C16.2595 11 16.2595 11 16.2595 11C16.2595 11 16.2595 11 16.2595 11C16.2595 11 16.2595 11 16.2595 11C16.2595 11 16.2595 11 16.2595 11C16.2595 11 16.2595 11 16.2595 11C16.2595 11 16.2595 11 16.2595 11C16.2595 11 16.2595 11 16.2595 11C16.2595 11 16.2595 11 16.2595 11C16.2595 11 16.2595 11 16.2595 11C16.2595 11 16.2595 11 16.2595 11C16.2595 11 16.2595 11 16.2595 11C16.2595 11 16.2595 11 16.2595 11C16.2595 11 16.2595 11 16.2595 11C16.2595 11 16.2595 11 16.2595 11C16.2595 11 16.2595 11 16.2595 11C16.2595 11 16.2595 11 16.2595 11C16.2595 11 16.2595 11 16.2595 11C16.2595 11 16.2595 11 16.2595 11C16.2595 11 16.2595 11 16.2595 11C16.2595 11 16.2595 11 16.2595 11C16.2595 11 16.2595 11 16.2595 11C16.2595 11 16.2595 11 16.2595 11C16.2595 11 16.2595 11 16.2595 11C16.2595 11 16.2595 11 16.2595 11C16.2595 11 16.2595 11 16.2595 11C16.2595 11 16.2595 11 16.2595 11C16.2595 11 16.2595 11 16.2595 11C16.2595 11 16.2595 11 16.2595 11C16.2595 11 16.2595 11 16.2595 11C16.2595 11 16.2595 11 16.2595 11C16.2595 11 16.2595 11 16.2595 11C16.2595 11 16.2595 11 16.2595 11C16.2595 11 16.2595 11 16.2595 11C16.2595 11 16.2595 11 16.2595 11C16.2595 11 16.2595 11 16.2595 11C16.2595 11 16.2595 11 16.2595 11C16.2595 11 16.2595 11 16.2595 11C16.2595 11 16.2595 11 16.2595 11C16.2595 11 16.2595 11 16.2595 11C16.2595 11 16.2595 11 16.2595 11C16.2595 11 16.2595 11 16.2595 11C16.2595 11 16.2595 11 16.2595 11C16.2595 11 16.2595 11 16.2595 11C16.2595 11 16.2595 11 16.2595 11C16.2595 11 16.2595 11 16.2595 11C16.2595 11 16.2595 11 16.2595 11C16.2595 11 16.2595 11 16.2595 11C16.2595 11 16.2595 11 16.2595 11C16.2595 11 16.2595 11 16.2595 11C16.2595 11 16.2595 11 16.2595 11C16.2595 11 16.2595 11 16.2595 11C16.2595 11 16.2595 11 16.2595 11C16.2595 11 16.2595 11 16.2595 11C16.2595 11 16.2595 11 16.2595 11C16.2595 11 16.2595 11 16.2595 11C16.2595 11 16.2595 11 16.2595 11C16.2595 11 16.2595 11 16.2595 11C16.2595 11 16.2595 11 16.2595 11C16.2595 11 16.2595 11 16.2595 11C16.2595 11 16.2595 11 16.2595 11C16.2595 11 16.2595 11 16.2595 11C16.2595 11 16.2595 11 16.2595 11C16.2595 11 16.2595 11 16.2595 11C16.2595 11 16.2595 11 16.2595 11C16.2595 11 16.2595 11 16.2595 11C16.2595 11 16.2595 11 16.2595 11C16.2595 11 16.2595 11 16.2595 11C16.2595 11 16.2595 11 16.2595 11C16.2595 11 16.2595 11 16.2595 11C16.2595 11 16.2595 11 16.2595 11C16.2595 11 16.2595 11 16.2595 11C16.2595 11 16.2595 11 16.2595 11C16.2595 11 16.2595 11 16.2595 11C16.2595 11 16.2595 11 16.2595 11C16.2595 11 16.2595 11 16.2595 11C16.2595 11 16.2595 11 16.2595 11C16.2595 11 16.2595 11 16.2595 11C16.2595 11 16.2595 11 16.2595 11C16.2595 11 16.2595 11 16.2595 11C16.2595 11 16.2595 11 16.2595 11C16.2595 11 16.2595 11 16.2595 11C16.2595 11 16.2595 11 16.2595 11C16.2595 11 16.2595 11 16.2595 11C16.2595 11 16.2595 11 16.2595 11C16.2595 11 16.2595 11 16.2595 11C16.2595 11 16.2595 11 16.2595 11C16.2595 11 16.2595 11 16.2595 11C16.2595 11 16.2595 11 16.2595 11C16.2595 11 16.2595 11 16.2595 11C16.2595 11 16.2595 11 16.2595 11C16.2595 11 16.2595 11 16.2595 11C16.2595 11 16.2595 11 16.2595 11C16.2595 11 16.2595 11 16.2595 11C16.2595 11 16.2595 11 16.2595 11C16.2595 11 16.2595 11 16.2595 11C16.2595 11 16.2595 11 16.2595 11C16.2595 11 16.2595 11 16.2595 11C16.2595 11 16.2595 11 16.2595 11C16.2595 11 16.2595 11 16.2595 11C16.2595 11 16.2595 11 16.2595 11C16.2595 11 16.2595 11 16.2595 11C16.2595 11 16.2595 11 16.2595 11C16.2595 11 16.2595 11 16.2595 11C16.2595 11 16.2595 11 16.2595 11C16.2595 11 16.2595 11 16.2595 11C16.2595 11 16.2595 11 16.2595 11C16.2595 11 16.2595 11 16.2595 11C16.2595 11 16.2595 11 16.2595 11C16.2595 11 16.2595 11 16.2595 11C16.2595 11 16.2595 11 16.2595 11C16.2595 11 16.2595 11 16.2595 11C16.2595 11 16.2595 11 16.2595 11C16.2595 11 16.2595 11 16.2595 11C16.2595 11 16.2595 11 16.2595 11C16.2595 11 16.2595 11 16.2595 11C16.2595 11 16.2595 11 16.2595 11C16.2595 11 16.2595 11 16.2595 11C16.2595 11 16.2595 11 16.2595 11C16.2595 11 16.2595 11 16.2595 11C16.2595 11 16.2595 11 16.2595 11C16.2595 11 16.2595 11 16.2595 11C16.2595 11 16.2595 11 16.2595 11C16.2595 11 16.2595 11 16.2595 11C16.2595 11 16.2595 11 16.2595 11C16.2595 11 16.2595 11 16.2595 11C16.2595 11 16.2595 11 16.2595 11C16.2595 11 16.2595 11 16.2595 11C16.2595 11 16.2595 11 16.2595 11C16.2595 11 16.2595 11 16.2595 11C16.2595 11 16.2595 11 16.2595 11C16.2595 11 16.2595 11 16.2595 11C16.2595 11 16.2595 11 16.2595 11C16.2595 11 16.2595 11 16.2595 11C16.2595 11 16.2595 11 16.2595 11C16.2595 11 16.2595 11 16.2595 11C16.2595 11 16.2595 11 16.2595 11C16.2595 11 16.2595 11 16.2595 11C16.2595 11 16.2595 11 16.2595 11C16.2595 11 16.2595 11 16.2595 11C16.2595 11 16.2595 11 16.2595 11C16.2595 11 16.2595 11 16.2595 11C16.2595 11 16.2595 11 16.2595 11C16.2595 11 16.2595 11 16.2595 11C16.2595 11 16.2595 11 16.2595 11C16.2595 11 16.2595 11 16.2595 11C16.2595 11 16.2595 11 16.2595 11C16.2595 11 16.2595 11 16.2595 11C16.2595 11 16.2595 11 16.2595 11C16.2595 11 16.2595 11 16.2595 11C16.2595 11 16.2595 11 16.2595 11C16.2595 11 16.2595 11 16.2595 11C16.2595 11 16.2595 11 16.2595 11C16.2595 11 16.2595 11 16.2595 11C16.2595 11 16.2595 11 16.2595 11C16.2595 11 16.2595 11 16.2595 11C16.2595 11 16.2595 11 16.2595 11C16.2595 11 16.2595 11 16.2595 11C16.2595 11 16.2595 11 16.2595 11C16.2595 11 16.2595 11 16.2595 11C16.2595 11 16.2595 11 16.2595 11C16.2595 11 16.2595 11 16.2595 11C16.2595 11 16.2595 11 16.2595 11C16.2595 11 16.2595 11 16.2595 11C16.2595 11 16.2595 11 16.2595 11C16.2595 11 16.2595 11 16.2595 11C16.2595 11 16.2595 11 16.2595 11C16.2595 11 16.2595 11 16.2595 11C16.2595 11 16.2595 11 16.2595 11C16.2595 11 16.2595 11 16.2595 11C16.2595 11 16.2595 11 16.2595 11C16.2595 11 16.2595 11 16.2595 11C16.2595 11 16.2595 11 16.2595 11C16.2595 11 16.2595 11 16.2595 11C16.2595 11 16.2595 11 16.2595 11C16.2595 11 16.2595 11 16.2595 11C16.2595 11 16.2595 11 16.2595 11C16.2595 11 16.2595 11 16.2595 11C16.2595 11 16.2595 11 16.2595 11C16.2595 11 16.2595 11 16.2595 11C16.2595 11 16.2595 11 16.2595 11C16.2595 11 16.2595 11 16.2595 11C16.2595 11 16.2595 11 16.2595 11C16.2595 11 16.2595 11 16.2595 11C16.2595 11 16.2595 11 16.2595 11C16.2595 11 16.2595 11 16.2595 11C16.2595 11 16.2595 11 16.2595 11C16.2595 11 16.2595 11 16.2595 11C16.2595 11 16.2595 11 16.2595 11C16.2595 11 16.2595 11 16.2595 11C16.2595 11 16.2595 11 16.2595 11C16.2595 11 16.2595 11 16.2595 11C16.2595 11 16.2595 11 16.2595 11C16.2595 11 16.2595 11 16.2595 11C16.2595 11 16.2595 11 16.2595 11C16.2595 11 16.2595 11 16.2595 11C16.2595 11 16.2595 11 16.2595 11C16.2595 11 16.2595 11 16.2595 11C16.2595 11 16.2595 11 16.2595 11C16.2595 11 16.2595 11 16.2595 11C16.2595 11 16.2595 11 16.2595 11C16.2595 11 16.2595 11 16.2595 11C16.2595 11 16.2595 11 16.2595 11C16.2595 11 16.2595 11 16.2595 11C16.2595 11 16.2595 11 16.2595 11C16.2595 11 16.2595 11 16.2595 11C16.2595 11 16.2595 11 16.2595 11C16.2595 11 16.2595 11 16.2595 11C16.2595 11 16.2595 11 16.2595 11C16.2595 11 16.2595 11 16.2595 11C16.2595 11 16.2595 11 16.2595 11C16.2595 11 16.2595 11 16.2595 11C16.2595 11 16.2595 11 16.2595 11C16.2595 11 16.2595 11 16.2595 11C16.2595 11 16.2595 11 16.2595 11C16.2595 11 16.2595 11 16.2595 11C16.2595 11 16.2595 11 16.2595 11C16.2595 11 16.2595 11 16.2595 11C16.2595 11 16.2595 11 16.2595 11C16.2595 11 16.2595 11 16.2595 11C16.2595 11 16.2595 11 16.2595 11C16.2595 11 16.2595 11 16.2595 11C16.2595 11 16.2595 11 16.2595 11C16.2595 11 16.2595 11 16.2595 11C16.2595 11 16.2595 11 16.2595 11C16.2595 11 16.2595 11 16.2595 11C16.2595 11 16.2595 11 16.2595 11C16.2595 11 16.2595 11 16.2595 11C16.2595 11 16.2595 11 16.2595 11C16.2595 11 16.2595 11 16.2595 11C16.2595 11 16.2595 11 16.2595 11C16.2595 11 16.2595 11 16.2595 11C16.2595 11 16.2595 11 16.2595 11C16.2595 11 16.2595 11 16.2595 11C16.2595 11 16.2595 11 16.2595 11C16.2595 11 16.2595 11 16.2595 11C16.2595 11 16.2595 11 16.2595 11C16.2595 11 16.2595 11 16.2595 11C16.2595 11 16.2595 11 16.2595 11C16.2595 11 16.2595 11 16.2595 11C16.2595 11 16.2595 11 16.2595 11C16.2595 11 16.2595 11 16.2595 11C16.2595 11 16.2595 11 16.2595 11C16.2595 11 16.2595 11 16.2595 11C16.2595 11 16.2595 11 16.2595 11C16.2595 11 16.2595 11 16.2595 11C16.2595 11 16.2595 11 16.2595 11C16.2595 11 16.2595 11 16.2595 11C16.2595 11 16.2595 11 16.2595 11C16.2595 11 16.2595 11 16.2595 11C16.2595 11 16.2595 11 16.2595 11C16.2595 11 16.2595 11 16.2595 11C16.2595 11 16.2595 11 16.2595 11C16.2595 11 16.2595 11 16.2595 11C16.2595 11 16.2595 11 16.2595 11C16.2595 11 16.2595 11 16.2595 11C16.2595 11 16.2595 11 16.2595 11C16.2595 11 16.2595 11 16.2595 11C16.2595 11 16.2595 11 16.2595 11C16.2595 11 16.2595 11 16.2595 11C16.2595 11 16.2595 11 16.2595 11C16.2595 11 16.2595 11 16.2595 11C16.2595 11 16.2595 11 16.2595 11C16.2595 11 16.2595 11 16.2595 11C16.2595 11 16.2595 11 16.2595 11C16.2595 11 16.2595 11 16.2595 11C16.2595 11 16.2595 11 16.2595 11C16.2595 11 16.2595 11 16.2595 11C16.2595 11 16.2595 11 16.2595 11C16.2595 11 16.2595 11 16.2595 11C16.2595 11 16.2595 11 16.2595 11C16.2595 11 16.2595 11 16.2595 11C16.2595 11 16.2595 11 16.2595 11C16.2595 11 16.2595 11 16.2595 11C16.2595 11 16.2595 11 16.2595 11C16.2595 11 16.2595 11 16.2595 11C16.2595 11 16.2595 11 16.2595 11C16.2595 11 16.2595 11 16.2595 11C16.2595 11 16.2595 11 16.2595 11C16.2595 11 16.2595 11 16.2595 11C16.2595 11 16.2595 11 16.2595 11C16.2595 11 16.2595 11 16.2595 11C16.2595 11 16.2595 11 16.2595 11C16.2595 11 16.2595 11 16.2595 11C16.2595 11 16.2595 11 16.2595 11C16.2595 11 16.2595 11 16.2595 11C16.2595 11 16.2595 11 16.2595 11C16.2595 11 16.2595 11 16.2595 11C16.2595 11 16.2595 11 16.2595 11C16.2595 11 16.2595 11 16.2595 11C16.2595 11 16.2595 11 16.2595 11C16.2595 11 16.2595 11 16.2595 11C16.2595 11 16.2595 11 16.2595 11C16.2595 11 16.2595 11 16.2595 11C16.2595 11 16.2595 11 16.2595 11C16.2595 11 16.2595 11 16.2595 11C16.2595 11 16.2595 11 16.2595 11C16.2595 11 16.2595 11 16.2595 11C16.2595 11 16.2595 11 16.2595 11C16.2595 11 16.2595 11 16.2595 11C16.2595 11 16.2595 11 16.2595 11C16.2595 11 16.2595 11 16.2595 11V8.99998ZM17.2595 9.99998V0H15.2595V9.99998H17.2595Z" fill="black" mask="url(#path-1-inside-1_1006_8535)"/>
<path fill-rule="evenodd" clip-rule="evenodd" d="M16.2586 3.07027e-08C16.2593 1.02336e-08 16.2599 0 16.2605 0C25.1828 0 32.4266 2.20995 32.5191 4.94693V5.05304C32.4266 7.79002 25.1828 9.99997 16.2605 9.99997C16.2599 9.99997 16.2593 9.99997 16.2586 9.99997V3.07027e-08Z" fill="black"/>
</svg>
